<?xml version="1.0" encoding="utf-8"?>
<!-- Generator: Adobe Illustrator 17.1.0, SVG Export Plug-In . SVG Version: 6.00 Build 0)  -->
<!DOCTYPE svg PUBLIC "-//W3C//DTD SVG 1.1//EN" "http://www.w3.org/Graphics/SVG/1.1/DTD/svg11.dtd">
<svg version="1.1" xmlns="http://www.w3.org/2000/svg" xmlns:xlink="http://www.w3.org/1999/xlink" x="0px" y="0px"
	 viewBox="0 0 632 340" enable-background="new 0 0 632 340" xml:space="preserve">
<g id="Layer_1" display="none">
	
		<image display="inline" overflow="visible" width="3264" height="2448" xlink:href="../../../../Downloads/photo.JPG"  transform="matrix(0.2354 0 0 0.2354 -62.1307 -152.098)">
	</image>
</g>
<g id="Layer_10">
	<path fill="#C48D02" d="M502.1,271.6l-11-8.7c0,0,18.8-52.9-148.9-47.9c-100.9,3-115.4,46.2-260,76.2l5.3-5.7l84.5-23.5l44.4-22.4
		c0,0,84-48.6,197.3-32.9S517.8,260,502.1,271.6z"/>
</g>
<g id="Layer_11">
	<path fill="#D8A105" d="M137.4,269.5c0,0-70.8-67.6-94-25l-0.2-18.7L64.5,215l29.6,7.8l56.9,42.1l-7.8,8.2L137.4,269.5z"/>
</g>
<g id="Layer_24">
	<path fill="#D8A105" d="M182.9,117.7l-1.1,7.5c0,0,4.5,1.9,2.5,19.4s-14.6,48-28.1,40.5c0,0,10.8,9.4,18.8,5.4s35-67.1,8.2-73.5"/>
</g>
<g id="Layer_21">
	<path fill="#D8A105" d="M121.4,131.2l-2.6,7.6c0,0,7.8,2.8,1.8,31.2c-6,28.4-6.7,42.3-0.3,48.2c6.4,5.9,19.8,11.7,39.6-1.2
		l-31.5-85.5L121.4,131.2"/>
</g>
<g id="Layer_22">
	<path fill="#D8A105" d="M474.8,95.1c0,0-36.7,1.4-42.7,43.4s14.4,52,37.9,54s41.6-60.5,18.3-54.8l0,0c0,0,5.2,10.3-3.3,26.3
		s-20,12-25,9s-23-49.5,11.5-77.5"/>
</g>
<g id="Layer_12">
	<path fill="#D8A105" d="M137.4,269.5c0,0,36,33.4,45.1,44.3l10.1-5.2L179,280.5l-23.2-10.4L137.4,269.5z"/>
</g>
<g id="Layer_13">
	<path fill="#D8A105" d="M21.3,214c0,0-15,10.2-17.3,27.3c-3.9,28.6,15.4,68,108.8,49.2c74-22.7,109.9-45.1,109.9-45.1l-5.9-1.9
		l-64.2,26.2L104.7,284L40,277.7L21.3,214z"/>
</g>
<g id="Layer_23">
	<path fill="#D8A105" d="M350.2,32c0,0-22-1-34.3,49.1c-9.1,37-9.3,60.6-6.6,83.8c2.6,23.2,22.9,44.9,74.6,5.9c2-3.4-2-2.9-2-2.9
		s-43,27.2-54.3,8.8S350.2,32,350.2,32"/>
	<path fill="#D8A105" d="M407.7,42.4c0,0-25.4,6.6-32.4,62.2s0.7,89.9,32.8,82.4c18.6-3.6,32-19.8,32-19.8s-19.8,15.9-34.6,13.3
		C390.7,178,407.7,42.4,407.7,42.4"/>
</g>
<g id="Layer_14">
	<path fill="#D8A105" d="M149.2,260.6c0,0,2.6-35.9,16.5-58.1s0.1-2,0.1-2l8,0.5l-11.8,64.4L149.2,260.6z"/>
</g>
<g id="Layer_15">
</g>
<g id="Layer_16">
	<path fill="#D8A105" d="M273.2,136.8c0,0,8-8.5,0.7-11.5s-14.5,0.1-21.1,17.8l1.2-19.5l22-16.2l11.6,7.2l0.3,12.5L273.2,136.8z"/>
</g>
<g id="Layer_17">
	<path fill="#D8A105" d="M341.2,121.8c0,0,33.1-51.6,23.3-72.2l4.3-4.3c0,0,19.1,24.2-29.8,87.9L341.2,121.8z"/>
	<path fill="#D8A105" d="M404.6,129.8c0,0,36.8-54.7,25.1-73.4c0,0,0,0,0,0l4.3-4.3c0,0,0,0,0,0c0,0,18.5,25.1-31.6,89
		c0,0,1.8-1.1,1.8-1.1L404.6,129.8z"/>
</g>
<g id="Layer_18">
	<path fill="#D8A105" d="M604.6,90.7c-49.3-19.2-73.1,100-73.1,100l5.7,8.7L604.6,90.7z"/>
</g>
<g id="Layer_19">
</g>
<g id="Layer_2">
	<path fill="#FFC400" d="M482,202.4c-45.6-8-149.5-29.9-292.5,46.7c0-0.5,0-1,0-1.4c0,0,0-0.1,0-0.1c1-9.4,6.8-59,27.7-108.3
		c20.2-47.6-22.6-28.2-34.1-22.3c-0.8,0.4-0.7,1.6,0.2,1.9c5.1,1.7,12.8,9.3-1.1,47.8c-14.1,39.1-36,16.6-29.5-3.1
		c6.4-19.3,18.8-61.3-31.3-32.3c-0.8,0.5-0.7,1.6,0.2,1.9c4.1,1.2,10.5,6.3,6,26.2c-6.4,28.3-14.1,51.9,0.1,60.1
		c14.1,8.1,31.8,2,44.9-17.1c-1.7,2.4-13.1,18.8-18.1,57.8c-0.1,0.9-1.2,1.2-1.7,0.6c-9.8-10.5-67-68.8-117.1-53.5
		c-55.1,16.8-22.2,80.8,31.1,83.3c33,1.5,61.6-6.4,89.9-17.6c0.4-0.1,0.8-0.1,1,0.2c6,5.3,22.7,20.5,33.4,35.4
		c0.6,0.9,2,0.4,1.8-0.7c-0.9-8.4-2.8-28.8-3.3-48.5c0-0.4,0.2-0.8,0.6-0.9c6.2-2.9,11.3-6.3,19.9-10.3
		c47.1-21.8,100-53.2,223.1-33.8c97.8,17.8,68.7,57.5,68.7,57.5s36.2,20.2,54.1-10.8S527.6,210.5,482,202.4z M53.2,232.4
		c25.1-24.9,84.1,26.5,93.2,32.9c0.7,0.5,0.5,1.5-0.2,1.8C84.6,293.9,22.3,263.1,53.2,232.4z"/>
</g>
<g id="Layer_20">
	<path fill="#D8A105" d="M282.5,93.4c0,0-51.7,3.5-65.4,65.6c-12.1,54.7,27.1,60.1,58.7,47.6c18.3-7.3,34.4-22.7,39.8-29l1.4-6.9
		l-58.1,33.6l-31.1-44.9L282.5,93.4z"/>
</g>
<g id="Layer_3">
	<path fill="#FFC400" d="M313.7,164.4c0,0-33,38.8-53.1,28.9c-20.1-9.9-10.7-33.4-10.7-33.4s56.7-33.4,50.6-53.1
		c-6.2-19.7-35-17.4-55.2,6.7c-20.1,24.2-42.6,76.9-6.8,91.8c35.9,14.8,76.7-32.2,76.7-32.2L313.7,164.4z M280.1,123
		c6.8,9.1-28.4,29-28.4,29C257.7,117.7,273.2,113.9,280.1,123z"/>
</g>
<g id="Layer_8">
</g>
<g id="Layer_9">
	<path fill="#FFC400" d="M374,48.4c0,0,13.2,36.2-57.7,122.8l-2.6-6.5c0,0,67.1-75.7,55.1-118.4"/>
	<path fill="#FFC400" d="M439.7,54.7c0,0,18.8,26.5-54.2,115l-2.6-6.5c0,0,65.9-74.7,51.7-109.1"/>
</g>
<g id="Layer_4">
	<path fill="#FFC400" d="M374.3,49.8c0,0-6.2-27-31.3-15.2c-23.5,11-45.2,142.2-19,150.5s47.9-7.8,59.2-17.9l-2.3-5.5
		c0,0-19.9,20.9-34.8,13.3c-14.9-7.6-2-66.9,3.3-90S363.4,43.1,374.3,49.8z"/>
</g>
<g id="Layer_5">
	<path fill="#FFC400" d="M440.3,55.8c0,0-9.3-22.6-32.6-13.4c-23.3,9.2-42.1,108.4-21.7,133.7s54.1-8.8,54.1-8.8l-1.3-6.2
		c0,0-16.2,17.5-29,11.9c-12.8-5.6-1-85.4,8.6-103.7S440.3,55.8,440.3,55.8z"/>
</g>
<g id="Layer_6">
	<path fill="#FFC400" d="M487,124.7c0,0-22.7-18.5-30.7,18.8s19.3,40.2,29.5,27s15.1-35.4,2.5-32.7c0,0,13.9-19.4,25.1-4.8
		c11.2,14.6-10.4,69.9-47.1,58.7s-34.4-51.4-17-79.7s49-15.2,48.9-1.7C498,123.7,487,124.7,487,124.7z"/>
</g>
<g id="Layer_7">
	<path fill="#FFC400" d="M561.1,209c0,0-15.9-2.1-23.9-9.5c0,0,8.4-49.5,28.9-84.5s53.2-34.1,60.4,5.3
		C626.5,120.4,602.9,106.9,561.1,209z"/>
</g>
</svg>
